<svg width="38" height="12" viewBox="0 0 38 12" fill="none" xmlns="http://www.w3.org/2000/svg">
<path d="M2.47559 4.80762H3.35791C3.91227 4.79915 4.34814 4.65316 4.66553 4.36963C4.98291 4.0861 5.1416 3.70312 5.1416 3.2207C5.1416 2.13737 4.60205 1.5957 3.52295 1.5957C3.01514 1.5957 2.60889 1.7417 2.3042 2.03369C2.00374 2.32145 1.85352 2.70443 1.85352 3.18262H0.679199C0.679199 2.45052 0.945801 1.84326 1.479 1.36084C2.01644 0.874186 2.69775 0.630859 3.52295 0.630859C4.39469 0.630859 5.07812 0.861491 5.57324 1.32275C6.06836 1.78402 6.31592 2.42513 6.31592 3.24609C6.31592 3.64811 6.18473 4.03743 5.92236 4.41406C5.66423 4.79069 5.31087 5.0721 4.8623 5.2583C5.37012 5.41911 5.76156 5.68571 6.03662 6.05811C6.31592 6.4305 6.45557 6.88542 6.45557 7.42285C6.45557 8.25228 6.18473 8.91032 5.64307 9.39697C5.1014 9.88363 4.39681 10.127 3.5293 10.127C2.66178 10.127 1.95508 9.89209 1.40918 9.42236C0.867513 8.95264 0.59668 8.33268 0.59668 7.5625H1.77734C1.77734 8.04915 1.93604 8.43848 2.25342 8.73047C2.5708 9.02246 2.99609 9.16846 3.5293 9.16846C4.09635 9.16846 4.53011 9.02035 4.83057 8.72412C5.13102 8.4279 5.28125 8.0026 5.28125 7.44824C5.28125 6.91081 5.11621 6.49821 4.78613 6.21045C4.45605 5.92269 3.97998 5.77458 3.35791 5.76611H2.47559V4.80762ZM8.15039 11.8408L7.48389 11.3838C7.88167 10.8294 8.08903 10.2581 8.10596 9.66992V8.60986H9.25488V9.53027C9.25488 9.95768 9.14909 10.3851 8.9375 10.8125C8.73014 11.2399 8.46777 11.5827 8.15039 11.8408ZM15.228 0.751465V1.74805H15.0122C14.0981 1.76497 13.3703 2.03581 12.8286 2.56055C12.2869 3.08529 11.9738 3.82373 11.8892 4.77588C12.3758 4.21729 13.0402 3.93799 13.8823 3.93799C14.6864 3.93799 15.3275 4.22152 15.8057 4.78857C16.2881 5.35563 16.5293 6.08773 16.5293 6.98486C16.5293 7.93701 16.269 8.69873 15.7485 9.27002C15.2323 9.84131 14.5382 10.127 13.6665 10.127C12.7821 10.127 12.0648 9.78841 11.5146 9.11133C10.9645 8.43001 10.6895 7.55404 10.6895 6.4834V6.03271C10.6895 4.33154 11.0513 3.03239 11.7749 2.13525C12.5028 1.23389 13.584 0.772624 15.0186 0.751465H15.228ZM13.6855 4.91553C13.2835 4.91553 12.9132 5.03613 12.5747 5.27734C12.2362 5.51855 12.0013 5.82113 11.8701 6.18506V6.6167C11.8701 7.37842 12.0415 7.99202 12.3843 8.45752C12.7271 8.92301 13.1545 9.15576 13.6665 9.15576C14.1955 9.15576 14.6102 8.9611 14.9106 8.57178C15.2153 8.18245 15.3677 7.67253 15.3677 7.04199C15.3677 6.40723 15.2132 5.89518 14.9043 5.50586C14.5996 5.1123 14.1934 4.91553 13.6855 4.91553ZM22.3691 3.13184L22.4009 3.89355C22.9045 3.30111 23.5837 3.00488 24.4385 3.00488C25.3991 3.00488 26.0529 3.37305 26.3999 4.10938C26.6284 3.7793 26.9246 3.5127 27.2886 3.30957C27.6567 3.10645 28.0905 3.00488 28.5898 3.00488C30.0964 3.00488 30.8623 3.80257 30.8877 5.39795V10H29.7134V5.46777C29.7134 4.97689 29.6012 4.61084 29.377 4.36963C29.1527 4.12419 28.776 4.00146 28.2471 4.00146C27.8112 4.00146 27.4494 4.13265 27.1616 4.39502C26.8739 4.65316 26.7067 5.00228 26.6602 5.44238V10H25.4795V5.49951C25.4795 4.50081 24.9907 4.00146 24.0132 4.00146C23.243 4.00146 22.7161 4.32943 22.4326 4.98535V10H21.2583V3.13184H22.3691ZM33.9409 10H32.7666V3.13184H33.9409V10ZM32.6714 1.31006C32.6714 1.11963 32.7285 0.958822 32.8428 0.827637C32.9613 0.696452 33.1348 0.630859 33.3633 0.630859C33.5918 0.630859 33.7653 0.696452 33.8838 0.827637C34.0023 0.958822 34.0615 1.11963 34.0615 1.31006C34.0615 1.50049 34.0023 1.65918 33.8838 1.78613C33.7653 1.91309 33.5918 1.97656 33.3633 1.97656C33.1348 1.97656 32.9613 1.91309 32.8428 1.78613C32.7285 1.65918 32.6714 1.50049 32.6714 1.31006ZM37.1021 10H35.9277V0.25H37.1021V10Z" fill="#536471"/>
</svg>
