<svg width="7" height="11" viewBox="0 0 7 11" fill="none" xmlns="http://www.w3.org/2000/svg">
<path d="M2.47559 4.80762H3.35791C3.91227 4.79915 4.34814 4.65316 4.66553 4.36963C4.98291 4.0861 5.1416 3.70312 5.1416 3.2207C5.1416 2.13737 4.60205 1.5957 3.52295 1.5957C3.01514 1.5957 2.60889 1.7417 2.3042 2.03369C2.00374 2.32145 1.85352 2.70443 1.85352 3.18262H0.679199C0.679199 2.45052 0.945801 1.84326 1.479 1.36084C2.01644 0.874186 2.69775 0.630859 3.52295 0.630859C4.39469 0.630859 5.07812 0.861491 5.57324 1.32275C6.06836 1.78402 6.31592 2.42513 6.31592 3.24609C6.31592 3.64811 6.18473 4.03743 5.92236 4.41406C5.66423 4.79069 5.31087 5.0721 4.8623 5.2583C5.37012 5.41911 5.76156 5.68571 6.03662 6.05811C6.31592 6.4305 6.45557 6.88542 6.45557 7.42285C6.45557 8.25228 6.18473 8.91032 5.64307 9.39697C5.1014 9.88363 4.39681 10.127 3.5293 10.127C2.66178 10.127 1.95508 9.89209 1.40918 9.42236C0.867513 8.95264 0.59668 8.33268 0.59668 7.5625H1.77734C1.77734 8.04915 1.93604 8.43848 2.25342 8.73047C2.5708 9.02246 2.99609 9.16846 3.5293 9.16846C4.09635 9.16846 4.53011 9.02035 4.83057 8.72412C5.13102 8.4279 5.28125 8.0026 5.28125 7.44824C5.28125 6.91081 5.11621 6.49821 4.78613 6.21045C4.45605 5.92269 3.97998 5.77458 3.35791 5.76611H2.47559V4.80762Z" fill="#536471"/>
</svg>
