<svg width="35" height="11" viewBox="0 0 35 11" fill="none" xmlns="http://www.w3.org/2000/svg">
<path d="M5.37646 0.751465V1.74805H5.16064C4.24658 1.76497 3.51872 2.03581 2.97705 2.56055C2.43538 3.08529 2.12223 3.82373 2.0376 4.77588C2.52425 4.21729 3.18864 3.93799 4.03076 3.93799C4.8348 3.93799 5.47591 4.22152 5.9541 4.78857C6.43652 5.35563 6.67773 6.08773 6.67773 6.98486C6.67773 7.93701 6.41748 8.69873 5.89697 9.27002C5.3807 9.84131 4.68669 10.127 3.81494 10.127C2.9305 10.127 2.21322 9.78841 1.66309 9.11133C1.11296 8.43001 0.837891 7.55404 0.837891 6.4834V6.03271C0.837891 4.33154 1.19971 3.03239 1.92334 2.13525C2.6512 1.23389 3.73242 0.772624 5.16699 0.751465H5.37646ZM3.83398 4.91553C3.43197 4.91553 3.06169 5.03613 2.72314 5.27734C2.3846 5.51855 2.14974 5.82113 2.01855 6.18506V6.6167C2.01855 7.37842 2.18994 7.99202 2.53271 8.45752C2.87549 8.92301 3.3029 9.15576 3.81494 9.15576C4.34391 9.15576 4.75863 8.9611 5.05908 8.57178C5.36377 8.18245 5.51611 7.67253 5.51611 7.04199C5.51611 6.40723 5.36165 5.89518 5.05273 5.50586C4.74805 5.1123 4.3418 4.91553 3.83398 4.91553ZM14.0347 1.41797L10.207 10H8.97559L12.7905 1.72266H7.78857V0.757812H14.0347V1.41797ZM19.8174 3.13184L19.8491 3.89355C20.3527 3.30111 21.0319 3.00488 21.8867 3.00488C22.8473 3.00488 23.5011 3.37305 23.8481 4.10938C24.0767 3.7793 24.3729 3.5127 24.7368 3.30957C25.105 3.10645 25.5387 3.00488 26.0381 3.00488C27.5446 3.00488 28.3105 3.80257 28.3359 5.39795V10H27.1616V5.46777C27.1616 4.97689 27.0495 4.61084 26.8252 4.36963C26.6009 4.12419 26.2243 4.00146 25.6953 4.00146C25.2594 4.00146 24.8976 4.13265 24.6099 4.39502C24.3221 4.65316 24.1549 5.00228 24.1084 5.44238V10H22.9277V5.49951C22.9277 4.50081 22.439 4.00146 21.4614 4.00146C20.6912 4.00146 20.1644 4.32943 19.8809 4.98535V10H18.7065V3.13184H19.8174ZM31.3892 10H30.2148V3.13184H31.3892V10ZM30.1196 1.31006C30.1196 1.11963 30.1768 0.958822 30.291 0.827637C30.4095 0.696452 30.583 0.630859 30.8115 0.630859C31.04 0.630859 31.2135 0.696452 31.332 0.827637C31.4505 0.958822 31.5098 1.11963 31.5098 1.31006C31.5098 1.50049 31.4505 1.65918 31.332 1.78613C31.2135 1.91309 31.04 1.97656 30.8115 1.97656C30.583 1.97656 30.4095 1.91309 30.291 1.78613C30.1768 1.65918 30.1196 1.50049 30.1196 1.31006ZM34.5503 10H33.376V0.25H34.5503V10Z" fill="#536471"/>
</svg>
